<svg xmlns="http://www.w3.org/2000/svg" width="1244" height="817" viewBox="0 0 1244 817" version="1.1"><path d="M 135.724 133.771 L 132.042 137.541 131.369 408.270 L 130.697 678.999 130.312 679.049 L 129.928 679.099 117.568 670.049 L 105.207 661 104.604 661 L 104 661 104.033 663.750 L 104.065 666.500 121.435 679.250 L 138.805 692 139.903 692 L 141 692 141 411 L 141 130 140.203 130 L 139.406 130 135.724 133.771 M 1088 151.999 L 1088 171.998 620.250 172.249 L 152.500 172.500 152.202 178.750 L 151.905 185 624.452 185 L 1097 185 1097 158.500 L 1097 132 1092.500 132 L 1088 132 1088 151.999 M 1136.986 405.042 L 1136.971 653.500 1122.986 663.828 L 1109 674.156 1109 683.151 L 1109 692.147 1110.485 691.823 L 1111.970 691.500 1128.963 679 L 1145.956 666.500 1145.978 415.958 L 1146 165.416 1141.500 161 L 1137 156.584 1136.986 405.042 M 80.267 164.224 L 77.084 167.509 76.792 409.753 L 76.500 651.998 75.876 651.999 L 75.252 652 62.644 643.500 L 50.036 635 49.518 635 L 49 635 49.012 638.250 L 49.025 641.500 66.262 653 L 83.500 664.500 84.597 664.500 L 85.695 664.500 86.097 413.014 L 86.500 161.529 84.975 161.234 L 83.450 160.940 80.267 164.224 M 1191.009 407.118 L 1191.035 629.236 1177.369 638.368 L 1163.702 647.500 1163.756 656 L 1163.810 664.500 1165.155 664.500 L 1166.500 664.500 1183.750 653.020 L 1201 641.541 1201 416.887 L 1201 192.233 1196.997 188.616 L 1192.994 185 1191.988 185 L 1190.983 185 1191.009 407.118 M 277.714 198.620 L 277 199.333 277 294.167 L 277 389 277.873 389 L 278.745 389 282.878 384.517 L 287.011 380.033 286.755 289.267 L 286.500 198.500 282.464 198.203 L 278.427 197.906 277.714 198.620 M 608 384.500 L 608 571 534.021 571 L 460.043 571 461.182 573.500 L 462.321 576 535.161 576 L 608 576 608 579.500 L 608 583 612.500 583 L 617 583 617 390.500 L 617 198 612.500 198 L 608 198 608 384.500 M 1088 229 L 1088 259 928.500 259 L 769 259 769 362.500 L 769 466 773.500 466 L 778 466 778 368.500 L 778 271 937.500 271 L 1097 271 1097 235 L 1097 199 1092.500 199 L 1088 199 1088 229 M 1088 456.500 L 1088 571 860.500 571 L 633 571 633 573.500 L 633 576 860.500 576 L 1088 576 1088 579.500 L 1088 583 1092.500 583 L 1097 583 1097 462.500 L 1097 342 1092.500 342 L 1088 342 1088 456.500 M 915 405 L 915 411 935 411 L 955 411 955 405 L 955 399 935 399 L 915 399 915 405 M 349.125 464.250 L 333.062 495.500 313.745 533 L 294.427 570.500 223.714 570.757 L 153 571.013 153 573.507 L 153 576 222 576 L 291 576 291 576.550 L 291 577.099 289.453 580.091 L 287.906 583.082 295.996 582.791 L 304.086 582.500 334.142 524 L 364.197 465.500 369.653 455.250 L 375.109 445 384.069 445 L 393.029 445 390 439 L 386.971 433 376.080 433 L 365.188 433 349.125 464.250 M 153 592 L 153 596 224.980 596 L 296.959 596 299 592 L 301.041 588 227.020 588 L 153 588 153 592 M 471 592 L 473.041 596 545.020 596 L 617 596 617 592 L 617 588 542.980 588 L 468.959 588 471 592 M 633 592 L 633 596 865 596 L 1097 596 1097 592 L 1097 588 865 588 L 633 588 633 592 M 273.362 611.500 L 272.786 613 212.893 613 L 153 613 153 619.007 L 153 625.015 217.569 624.757 L 282.138 624.500 285.522 618.500 L 288.905 612.500 288.952 611.250 L 289 610 281.469 610 L 273.937 610 273.362 611.500 M 608 611.500 L 608 613 545 613 L 482 613 482 613.450 L 482 613.900 484.928 619.200 L 487.856 624.500 552.428 624.757 L 617 625.015 617 617.507 L 617 610 612.500 610 L 608 610 608 611.500 M 1088 611.500 L 1088 613 860.500 613 L 633 613 633 619 L 633 625 865 625 L 1097 625 1097 617.500 L 1097 610 1092.500 610 L 1088 610 1088 611.500 M 1088 659 L 1088 679 620.452 679 L 152.905 679 153.202 685.250 L 153.500 691.500 625.250 691.751 L 1097 692.002 1097 665.501 L 1097 639 1092.500 639 L 1088 639 1088 659" stroke="none" fill="#070404" fill-rule="evenodd"/><path d="M 112.740 135.760 L 95 153.520 95.021 404.010 L 95.043 654.500 99.259 657.500 L 103.475 660.500 105.538 661.587 L 107.601 662.675 119.301 671.331 L 131 679.988 130.926 679.244 L 130.851 678.500 131.466 398.250 L 132.081 118 131.280 118 L 130.479 118 112.740 135.760 M 1100 399 L 1100 680 1101.310 680 L 1102.620 680 1107.797 675.580 L 1112.975 671.160 1124.978 662.330 L 1136.980 653.500 1136.990 403.490 L 1137 153.479 1119.240 135.740 L 1101.480 118 1100.740 118 L 1100 118 1100 399 M 143 146.647 L 143 173.293 150.651 172.647 L 158.302 172 623.151 172 L 1088 172 1088 146 L 1088 120 615.500 120 L 143 120 143 146.647 M 57.250 164.736 L 40 180.359 40.038 404.929 L 40.076 629.500 44.051 632.250 L 48.027 635 49.032 635 L 50.036 635 62.644 643.500 L 75.252 652 75.876 652 L 76.500 652 76.500 503.750 L 76.500 355.500 76.909 252.500 L 77.317 149.500 75.909 149.307 L 74.500 149.114 57.250 164.736 M 1154.720 149.613 L 1154.107 150.226 1154.671 401.363 L 1155.235 652.500 1156.180 652.854 L 1157.124 653.208 1161.812 649.268 L 1166.500 645.327 1178.755 637.312 L 1191.009 629.296 1191.033 404.398 L 1191.056 179.500 1174.082 164.250 L 1157.107 149 1156.220 149 L 1155.333 149 1154.720 149.613 M 144 378.499 L 144 571.013 219.214 570.756 L 294.427 570.500 313.745 533 L 333.062 495.500 349.125 464.250 L 365.188 433 376.080 433 L 386.971 433 390 439 L 393.029 445 392.392 445 L 391.755 445 392.739 446.250 L 393.724 447.500 425.456 509.250 L 457.188 571 532.594 571 L 608 571 608 378.493 L 608 185.986 541.250 186.243 L 474.500 186.500 474 287.114 L 473.500 387.727 442.500 357.872 L 411.500 328.016 376 328.025 L 340.500 328.035 314.317 353.267 L 288.134 378.500 283.474 383.750 L 278.815 389 277.852 389 L 276.889 389 277.062 287.750 L 277.236 186.500 210.618 186.243 L 144 185.986 144 378.499 M 624 379 L 624 571 856 571 L 1088 571 1088 450.500 L 1088 330 997 330 L 906 330 906 364.500 L 906 399 930.500 399 L 955 399 955 432.500 L 955 466 862 466 L 769 466 769 362.500 L 769 259 928.500 259 L 1088 259 1088 223 L 1088 187 856 187 L 624 187 624 379 M 144 580 L 144 584 215.815 584 L 287.630 584 289.315 580.466 L 291 576.932 291 576.466 L 291 576 217.500 576 L 144 576 144 580 M 462 580 L 464.041 584 536.020 584 L 608 584 608 580 L 608 576 533.980 576 L 459.959 576 462 580 M 624 580 L 624 584 856 584 L 1088 584 1088 580 L 1088 576 856 576 L 624 576 624 580 M 144 605.500 L 144 613 208.259 613 L 272.519 613 273.875 610.829 L 275.231 608.658 277.615 604.386 L 280 600.115 280 599.058 L 280 598 212 598 L 144 598 144 605.500 M 472.048 599.250 L 472.095 600.500 475.478 606.500 L 478.862 612.500 543.431 612.757 L 608 613.015 608 605.507 L 608 598 540 598 L 472 598 472.048 599.250 M 624 605.500 L 624 613 856 613 L 1088 613 1088 605.500 L 1088 598 856 598 L 624 598 624 605.500 M 144.233 653.250 L 144.500 679.500 148.750 679.455 L 153 679.409 620.500 679.205 L 1088 679 1088 653 L 1088 627 615.983 627 L 143.967 627 144.233 653.250" stroke="none" fill="#d40404" fill-rule="evenodd"/></svg>