<?xml version="1.0" encoding="UTF-8"?>
<svg version="1.1" xmlns="http://www.w3.org/2000/svg" width="1244" height="817">
<path d="M0 0 C0.7840247 0.00053453 1.56804941 0.00106906 2.37583244 0.00161979 C5.0308667 0.0046735 7.68582548 0.01495445 10.34084129 0.02513981 C12.25234919 0.02883081 14.16385799 0.03208079 16.07536733 0.03492504 C21.34979471 0.04406082 26.62418817 0.05949462 31.89859724 0.07590783 C37.5782256 0.09249571 43.2578652 0.10331246 48.93750572 0.11481571 C58.78509174 0.13555715 68.63266312 0.15998803 78.48023415 0.18689632 C92.71832221 0.22579633 106.95641896 0.25917634 121.19452398 0.29119159 C144.29265382 0.34327983 167.39076998 0.39984881 190.48888206 0.4592371 C212.93191064 0.51693044 235.37494282 0.5725196 257.81798363 0.62525272 C258.50946846 0.62687831 259.2009533 0.62850389 259.91339222 0.63017873 C266.85740705 0.64650079 273.80142199 0.66277999 280.74543699 0.67902779 C339.00466163 0.81534835 397.26386699 0.9589048 455.52306175 1.10743046 C455.52306175 5.06743046 455.52306175 9.02743046 455.52306175 13.10743046 C458.49306175 13.10743046 461.46306175 13.10743046 464.52306175 13.10743046 C464.54618679 22.47778984 464.56397766 31.84813947 464.57487392 41.21852112 C464.5801024 45.56911505 464.5871994 49.91968952 464.59850121 54.27027225 C464.60933134 58.46533303 464.61533885 62.66037505 464.617939 66.85544872 C464.61979302 68.45950014 464.62341319 70.06355048 464.62879181 71.66759396 C464.63600394 73.90659561 464.63705262 76.14551875 464.63658714 78.38453007 C464.63880775 79.66138172 464.64102837 80.93823338 464.64331627 82.2537775 C464.52306175 85.10743046 464.52306175 85.10743046 463.52306175 86.10743046 C461.82889873 86.20469848 460.13064292 86.23114559 458.43369007 86.23047829 C457.32397923 86.23246934 456.21426839 86.23446038 455.07092994 86.23651177 C453.83652123 86.23359893 452.60211251 86.23068608 451.33029747 86.22768497 C450.03087339 86.2285394 448.73144932 86.22939382 447.39264876 86.23027414 C443.76919663 86.23252155 440.14577379 86.22849447 436.5223254 86.22349608 C432.62114769 86.21919528 428.71997176 86.22063774 424.81879234 86.22139835 C418.05420029 86.22192383 411.28961786 86.21877462 404.52502823 86.21316051 C394.74445309 86.20504864 384.96388263 86.20243062 375.1833045 86.20117252 C359.31665519 86.19898151 343.45001101 86.1923201 327.58336449 86.18286991 C312.16637256 86.17369706 296.74938202 86.16662707 281.33238792 86.1623621 C280.37308996 86.1620941 279.413792 86.1618261 278.4254244 86.16154999 C270.92357527 86.15947068 263.42172611 86.15751371 255.91987693 86.15559542 C219.12093383 86.14615423 182.32200356 86.12603771 145.52306175 86.10743046 C145.52306175 150.12743046 145.52306175 214.14743046 145.52306175 280.10743046 C203.60306175 280.10743046 261.68306175 280.10743046 321.52306175 280.10743046 C321.52306175 262.28743046 321.52306175 244.46743046 321.52306175 226.10743046 C308.7331238 226.14703451 308.7331238 226.14703451 295.94322777 226.19751835 C294.34614185 226.20043749 292.7490552 226.20298605 291.151968 226.20508671 C289.89652184 226.21276066 289.89652184 226.21276066 288.61571312 226.22058964 C286.5844791 226.2208997 284.55333704 226.16983234 282.52306175 226.10743046 C281.52306175 225.10743046 281.52306175 225.10743046 281.4254055 222.60352421 C281.44280785 221.0895203 281.44280785 221.0895203 281.46056175 219.54493046 C281.46958519 218.5330164 281.47860863 217.52110233 281.4879055 216.47852421 C281.50530785 215.3048328 281.50530785 215.3048328 281.52306175 214.10743046 C279.57399925 214.13836796 279.57399925 214.13836796 277.58556175 214.16993046 C276.23140542 214.191425 274.87550092 214.17891244 273.52306175 214.10743046 C273.19306175 213.77743046 272.86306175 213.44743046 272.52306175 213.10743046 C272.52306175 190.33743046 272.52306175 167.56743046 272.52306175 144.10743046 C332.91306175 144.10743046 393.30306175 144.10743046 455.52306175 144.10743046 C455.52306175 148.06743046 455.52306175 152.02743046 455.52306175 156.10743046 C458.49306175 156.10743046 461.46306175 156.10743046 464.52306175 156.10743046 C464.52306175 235.63743046 464.52306175 315.16743046 464.52306175 397.10743046 C458.60578666 397.76490547 453.05288069 398.25193191 447.15355396 398.23047829 C446.3580756 398.23163213 445.56259724 398.23278598 444.74301347 398.23397478 C442.09117843 398.23661083 439.43940474 398.23214428 436.78757286 398.22768497 C434.86177305 398.22812129 432.9359733 398.22899732 431.01017386 398.23027414 C425.72876858 398.23250719 420.44738363 398.22851409 415.16598094 398.22349608 C409.46669938 398.21917469 403.76741895 398.2206392 398.06813622 398.22139835 C388.19721709 398.22192252 378.32630458 398.21878694 368.45538712 398.21316051 C354.18372393 398.20503096 339.91206394 398.2024288 325.64039869 398.20117252 C302.48515492 398.1989843 279.32991491 398.19233901 256.17467308 398.18286991 C233.68248577 398.17368259 211.1902994 398.16660039 188.69811058 398.1623621 C188.00455832 398.16223057 187.31100605 398.16209905 186.59643705 398.16196353 C179.63137268 398.16064499 172.66630829 398.15936918 165.70124389 398.15812468 C107.30851417 398.14768716 48.915788 398.13004414 -9.47693825 398.10743046 C-9.47693825 395.46743046 -9.47693825 392.82743046 -9.47693825 390.10743046 C-6.50693825 390.10743046 -3.53693825 390.10743046 -0.47693825 390.10743046 C-0.47693825 388.45743046 -0.47693825 386.80743046 -0.47693825 385.10743046 C-3.44693825 385.10743046 -6.41693825 385.10743046 -9.47693825 385.10743046 C-9.47693825 258.38743046 -9.47693825 131.66743046 -9.47693825 1.10743046 C-6.44919187 -0.40644273 -3.32020612 -0.01904797 0 0 Z " fill="#5D5D5D" transform="translate(633.4769382476807,185.89256954193115)"/>
<path d="M0 0 C44.22 0 88.44 0 134 0 C134 3.96 134 7.92 134 12 C136.97 12 139.94 12 143 12 C143.33 71.07 143.66 130.14 144 191 C151.08412923 184.50621488 158.03723789 178.09111321 164.75 171.25 C169.24393094 166.67207036 173.71306386 162.20732985 178.72216797 158.18994141 C180.67558694 156.31189552 181.86985396 154.75781512 183.32861328 152.52490234 C187.45540539 146.74193838 191.55496325 142.83277029 198.62023926 141.12487793 C207.85844381 139.66364337 217.24619993 139.7358056 226.57373047 139.84521484 C229.93666305 139.88211477 233.2830224 139.84091748 236.64404297 139.72216797 C267.23974249 138.64753926 267.23974249 138.64753926 278.31015015 148.96560669 C281.45363978 152.36288473 284.31834971 155.89113915 287.08526611 159.59954834 C289.98362319 163.23314259 293.43969097 166.04282772 297 169 C298.57179272 170.51101187 300.12721324 172.03948624 301.65625 173.59375 C302.45160156 174.39683594 303.24695313 175.19992187 304.06640625 176.02734375 C305.68880208 177.67578125 307.31119792 179.32421875 308.93359375 180.97265625 C313.18557646 185.26598725 317.47906211 189.41341632 322.09570312 193.31445312 C324.49455682 195.43774619 326.73473263 197.73473263 329 200 C329.33 134 329.66 68 330 0 C352.089375 -0.020625 374.17875 -0.04125 396.9375 -0.0625 C403.92413818 -0.071604 410.91077637 -0.08070801 418.10913086 -0.09008789 C426.61047363 -0.09460449 426.61047363 -0.09460449 430.58448792 -0.09544373 C433.37278532 -0.09637912 436.16106388 -0.10014139 438.94935608 -0.10557556 C442.49944937 -0.11240343 446.04951501 -0.11449698 449.59961426 -0.11307228 C451.52605082 -0.11351178 453.45248428 -0.11889136 455.37891293 -0.12442875 C457.06868173 -0.1223625 457.06868173 -0.1223625 458.79258728 -0.12025452 C459.77982757 -0.12117631 460.76706785 -0.1220981 461.78422451 -0.12304783 C464 0 464 0 465 1 C465.07226502 2.85287502 465.0838122 4.70833878 465.0625 6.5625 C465.05347656 7.57441406 465.04445313 8.58632812 465.03515625 9.62890625 C465.01775391 10.80259766 465.01775391 10.80259766 465 12 C466.299375 11.979375 467.59875 11.95875 468.9375 11.9375 C470.29165633 11.91600546 471.64756083 11.92851801 473 12 C474 13 474 13 474.1241985 15.58641773 C474.12381878 16.75253887 474.12343906 17.91866 474.12304783 19.12011814 C474.12420167 19.76960748 474.12535552 20.41909682 474.12654433 21.08826765 C474.12921731 23.29166324 474.12468329 25.49498755 474.12025452 27.69837952 C474.12069008 29.28316609 474.12156471 30.86795259 474.12284368 32.4527387 C474.12509157 36.8286928 474.12106336 41.20462267 474.11606562 45.58057368 C474.1117655 50.2915749 474.11320723 55.00257464 474.1139679 59.71357727 C474.11449341 67.88270964 474.11134375 76.05183406 474.10573006 84.22096443 C474.09761876 96.0322994 474.09500022 107.8436305 474.09374207 119.65496796 C474.09155096 138.81596064 474.08488929 157.97694908 474.07543945 177.13793945 C474.06626684 195.7561033 474.05918527 214.37426599 474.05493164 232.99243164 C474.05453756 234.71254701 474.05453756 234.71254701 474.05413551 236.46741218 C474.05283051 242.2200249 474.0515668 247.97263763 474.05032361 253.72525036 C474.03994917 301.48350318 474.02232927 349.24175138 474 397 C468.41855937 397.61348864 462.91437382 398.12514293 457.29269409 398.12025452 C456.05889511 398.12162918 454.82509613 398.12300385 453.5539093 398.12442017 C451.57405281 398.11902725 451.57405281 398.11902725 449.55419922 398.11352539 C448.12417096 398.11324276 446.69414256 398.11340273 445.26411438 398.1139679 C441.41151069 398.11425291 437.55893861 398.10840429 433.70634222 398.10139394 C429.66914884 398.09511087 425.6319546 398.0945527 421.59475708 398.09336853 C413.96294222 398.09026975 406.33114182 398.08207608 398.69933331 398.07201904 C390.00519385 398.06081261 381.31105368 398.05533607 372.61690879 398.05032361 C354.74459769 398.03989215 336.87230001 398.02232104 319 398 C317.4375 395.1875 317.4375 395.1875 316 392 C316.33 391.01 316.66 390.02 317 389 C316.61067144 386.85744207 316.61067144 386.85744207 316 385 C315.38914551 384.91540527 314.77829102 384.83081055 314.14892578 384.74365234 C311.32114419 383.76507671 310.93902182 382.74929118 309.6171875 380.1015625 C309.18196777 379.24852539 308.74674805 378.39548828 308.29833984 377.51660156 C307.8286377 376.56237305 307.35893555 375.60814453 306.875 374.625 C305.80220256 372.50775208 304.72927774 370.39056871 303.65625 368.2734375 C303.07230469 367.1090918 302.48835938 365.94474609 301.88671875 364.74511719 C299.89876046 360.7877821 297.87414019 356.84976018 295.84375 352.9140625 C295.48300888 352.21468567 295.12226776 351.51530884 294.75059509 350.79473877 C294.00524261 349.34986603 293.25983474 347.90502185 292.51437378 346.46020508 C290.57974246 342.70732604 288.65128633 338.95127817 286.72265625 335.1953125 C285.93506744 333.66177931 285.14746977 332.12825067 284.35986328 330.59472656 C283.96970032 329.83502563 283.57953735 329.07532471 283.17755127 328.29260254 C280.10068824 322.30218482 277.02193213 316.31274052 273.94262695 310.32357788 C272.82131298 308.14214499 271.70066009 305.96037344 270.58007812 303.77856445 C266.91765142 296.65085498 263.24043294 289.53131912 259.53515625 282.42578125 C258.82635815 281.06432049 258.11761665 279.70283026 257.40893555 278.34130859 C256.08282567 275.79369985 254.75152703 273.24889806 253.41723633 270.70556641 C252.83353271 269.58456543 252.2498291 268.46356445 251.6484375 267.30859375 C250.87765869 265.83604126 250.87765869 265.83604126 250.09130859 264.33374023 C249 262 249 262 249 260 C242.92360925 259.28830574 236.81095006 258.73177339 231 261 C225.71400621 265.59022086 223.31731011 272.84325082 220.625 279.125 C219.78416882 280.93842939 218.93604628 282.74849511 218.08081055 284.55517578 C216.40965999 288.10411326 214.7728135 291.66540216 213.16650391 295.24414062 C210.60897202 300.91232722 207.76059177 306.40152269 204.8125 311.875 C203.88543584 313.63926909 202.96101121 315.40492737 202.0390625 317.171875 C201.56243164 318.08388672 201.08580078 318.99589844 200.59472656 319.93554688 C197.27160185 326.32131867 193.98165786 332.72425199 190.6875 339.125 C189.96225479 340.53386199 189.2369944 341.94271618 188.51171875 343.3515625 C187.42330618 345.46585415 186.3348965 347.58014728 185.246521 349.69445801 C181.75854614 356.46992014 178.26903965 363.24458444 174.77236938 370.01556396 C173.84628525 371.80955202 172.92153045 373.6042261 171.99682617 375.39892578 C161.73091668 395.26908332 161.73091668 395.26908332 160 397 C150.03495529 398.09194385 139.99938753 398.14117579 129.98657227 398.11352539 C128.5558065 398.11324233 127.12504059 398.11340356 125.6942749 398.1139679 C121.86262758 398.11425125 118.03101246 398.10843018 114.19937253 398.10139394 C110.17555489 398.09508257 106.15173626 398.09455051 102.12791443 398.09336853 C94.53168198 398.09027793 86.93546416 398.08209558 79.33923811 398.07201904 C70.68125774 398.06078683 62.02327662 398.05532965 53.36529076 398.05032361 C35.57685225 398.03991072 17.78842731 398.02235589 0 398 C0 395.36 0 392.72 0 390 C2.97 390 5.94 390 9 390 C9 388.35 9 386.7 9 385 C6.03 385 3.06 385 0 385 C0 257.95 0 130.9 0 0 Z " fill="#5D5D5D" transform="translate(144,186)"/>
<path d="M0 0 C312.18 0 624.36 0 946 0 C946 3.96 946 7.92 946 12 C948.97 12 951.94 12 955 12 C955 29.49 955 46.98 955 65 C642.82 65 330.64 65 9 65 C9 61.04 9 57.08 9 53 C6.03 53 3.06 53 0 53 C0 35.51 0 18.02 0 0 Z " fill="#4D4D4D" transform="translate(143,120)"/>
<path d="M0 0 C311.85 0 623.7 0 945 0 C945 3.96 945 7.92 945 12 C947.97 12 950.94 12 954 12 C954 29.49 954 46.98 954 65 C642.15 65 330.3 65 9 65 C9 61.04 9 57.08 9 53 C6.03 53 3.06 53 0 53 C0 35.51 0 18.02 0 0 Z " fill="#4D4D4D" transform="translate(144,627)"/>
<path d="M0 0 C0.495 7.92 0.495 7.92 1 16 C2.32 14.68 3.64 13.36 5 12 C6.32 12 7.64 12 9 12 C9 197.46 9 382.92 9 574 C8.01 574.33 7.02 574.66 6 575 C4.27685547 574.12646484 4.27685547 574.12646484 2.3671875 572.7109375 C1.29295532 571.92541504 1.29295532 571.92541504 0.19702148 571.12402344 C-0.95237915 570.25825684 -0.95237915 570.25825684 -2.125 569.375 C-2.91382568 568.79266602 -3.70265137 568.21033203 -4.51538086 567.61035156 C-7.02054804 565.75356595 -9.51207201 563.87981068 -12 562 C-12.82226074 561.37963867 -13.64452148 560.75927734 -14.49169922 560.12011719 C-28.39186833 549.60813167 -28.39186833 549.60813167 -30 548 C-30.04080783 546.00041636 -30.04254356 543.99954746 -30 542 C-30.556875 541.7525 -31.11375 541.505 -31.6875 541.25 C-34.5806905 539.68611324 -36.67139172 538.36306535 -39 536 C-39.52734296 533.07410637 -39.72472232 530.713066 -39.71300507 527.78127193 C-39.72926016 526.94126722 -39.74551526 526.1012625 -39.76226294 525.2358031 C-39.81084705 522.40187541 -39.82373062 519.56890228 -39.83679199 516.73460388 C-39.86402054 514.68954287 -39.89333751 512.64450878 -39.92457056 510.59950501 C-40.00392658 504.96401789 -40.05143521 499.32863982 -40.09339476 493.69276631 C-40.1333904 488.86168802 -40.19185016 484.03090462 -40.25046879 479.2000218 C-40.45181655 462.57656752 -40.58649653 445.95284829 -40.7039828 429.32864181 C-40.71870542 427.25238035 -40.73365538 425.17612064 -40.74867272 423.09986129 C-40.93962057 396.6501663 -41.10704241 370.20032264 -41.21496848 343.75014944 C-41.24243515 337.02361509 -41.27093388 330.29708509 -41.29980469 323.57055664 C-41.30454789 322.45574453 -41.30454789 322.45574453 -41.30938692 321.31841095 C-41.41250605 297.28866836 -41.64195363 273.26233162 -41.94306811 249.23431487 C-42.25247759 224.49888109 -42.44620203 199.7652675 -42.4924847 175.02787032 C-42.49906684 171.5212892 -42.50687645 168.01471176 -42.51539612 164.50813484 C-42.51702342 163.81812226 -42.51865073 163.12810967 -42.52032734 162.41718762 C-42.54952938 151.3831851 -42.69666146 140.35387861 -42.88892721 129.32164718 C-43.08016232 118.18817521 -43.13622766 107.05866135 -43.0701142 95.92343002 C-43.03804368 89.9045573 -43.0596721 83.90002817 -43.23948288 77.88344002 C-43.85323668 56.24264607 -43.91922779 38.33098793 -28.76736358 21.5873461 C-8.04815769 0 -8.04815769 0 0 0 Z " fill="#4C4C4C" transform="translate(133,118)"/>
<path d="M0 0 C5 0 5 0 6.53393555 1.26879883 C7.000979 1.88779053 7.46802246 2.50678223 7.94921875 3.14453125 C11.2479525 7.20293005 14.78770776 10.85875069 18.51953125 14.51171875 C19.10797821 15.09188751 19.69642517 15.67205627 20.30270386 16.26980591 C22.76223668 18.69447054 25.22561174 21.11505027 27.69799805 23.52661133 C29.5202891 25.30656225 31.3329846 27.09584277 33.14453125 28.88671875 C33.70284134 29.42640793 34.26115143 29.96609711 34.83638 30.5221405 C37.07236712 32.74321161 38.82315117 34.52246632 39.9284668 37.50708008 C41.142432 40.33136778 42.0680345 40.87097597 44.51034409 42.62078846 C47.25874649 44.93344423 48.49009421 46.35550836 48.88780016 49.95663369 C48.92939106 51.49063898 48.9329354 53.02597155 48.90602779 54.56030464 C48.92533347 55.83917445 48.92533347 55.83917445 48.94502917 57.14388001 C48.9796777 60.00889057 48.9644308 62.87145309 48.94944763 65.73660278 C48.96395503 67.80802604 48.98148466 69.87942997 49.00178105 71.95080459 C49.04855942 77.64924925 49.0514172 83.34700484 49.0470041 89.045609 C49.04968608 95.18906885 49.0923626 101.33227136 49.12956238 107.4756012 C49.19546831 119.51459935 49.22222264 131.553311 49.23289906 143.59244819 C49.23414393 144.98947157 49.23539847 146.38649495 49.23666263 147.78351831 C49.23760297 148.82397109 49.23760297 148.82397109 49.23856231 149.88544311 C49.24626303 157.57350096 49.26640572 165.26151884 49.28715706 172.94955063 C49.34865251 196.17309018 49.39983513 219.39658128 49.40391445 242.62021065 C49.40412653 243.73438064 49.40412653 243.73438064 49.40434289 244.87105911 C49.40504028 248.63576288 49.40564237 252.40046666 49.40623771 256.16517045 C49.40648584 257.67619436 49.40673408 259.18721827 49.40698242 260.69824219 C49.40715033 261.82120136 49.40715033 261.82120136 49.40732164 262.96684658 C49.41129358 286.48479334 49.47798294 310.00186816 49.59155273 333.51953125 C49.71913678 359.94356868 49.79229385 386.36702011 49.79010826 412.79138362 C49.79007802 415.61010738 49.79026533 418.42883104 49.79060555 421.24755478 C49.79065881 421.94159139 49.79071208 422.63562801 49.79076696 423.35069603 C49.79291293 434.5119355 49.84685199 445.67234639 49.91904098 456.8333267 C49.99022161 468.05534216 50.00017251 479.27622129 49.95261442 490.49846764 C49.92846106 496.57686906 49.93008239 502.65235753 50.00149536 508.73045158 C50.06627366 514.29866549 50.05680877 519.86170249 49.98889328 525.42983352 C49.977295 527.44065439 49.99258823 529.45185342 50.03788238 531.46219756 C50.34564082 546.07659217 50.34564082 546.07659217 46.42249127 550.96607313 C42.62960933 554.5507877 38.41640294 557.29563718 33.90170193 559.88326333 C31.33207884 561.39222343 28.9963263 563.16023413 26.640625 564.98046875 C25.17802004 566.0507604 23.71452632 567.11983894 22.25 568.1875 C21.12078125 569.0237793 21.12078125 569.0237793 19.96875 569.87695312 C18.87820313 570.67069336 18.87820313 570.67069336 17.765625 571.48046875 C17.13430664 571.94348389 16.50298828 572.40649902 15.85253906 572.88354492 C13.90448333 574.05756428 12.22229724 574.56863821 10 575 C8.85922343 571.57767028 8.90184883 568.91326783 8.9375 565.3125 C8.94652344 564.13300781 8.95554687 562.95351563 8.96484375 561.73828125 C8.97644531 560.83464844 8.98804688 559.93101562 9 559 C8.071875 559.680625 7.14375 560.36125 6.1875 561.0625 C4.6096875 562.0215625 4.6096875 562.0215625 3 563 C2.01 562.67 1.02 562.34 0 562 C0 376.54 0 191.08 0 0 Z " fill="#4D4D4D" transform="translate(1099,118)"/>
<path d="M0 0 C1.32 0 2.64 0 4 0 C5.41634833 2.83269666 5.3463005 5.47466438 5.5625 8.625 C5.64628906 9.81351563 5.73007813 11.00203125 5.81640625 12.2265625 C5.87699219 13.14179688 5.93757813 14.05703125 6 15 C6.66 15 7.32 15 8 15 C8.33 14.01 8.66 13.02 9 12 C10.32 12 11.64 12 13 12 C14.58779923 15.17559846 14.1344964 18.59904539 14.12304783 22.0860157 C14.12420167 22.93588698 14.12535552 23.78575826 14.12654433 24.66138321 C14.12921423 27.54039809 14.12468576 30.41935826 14.12025452 33.29837036 C14.12069014 35.37074639 14.12156489 37.44312236 14.12284368 39.51549804 C14.12509035 45.23457637 14.12106502 50.95363613 14.11606562 56.67271209 C14.11176376 62.83088034 14.11320736 68.98904747 14.1139679 75.1472168 C14.1144933 85.82475188 14.11137955 96.50228026 14.10573006 107.17981339 C14.09981835 118.38158319 14.09596519 129.58335057 14.09487724 140.78512192 C14.0948085 141.48093052 14.09473976 142.17673913 14.09466894 142.89363284 C14.09433062 146.42711747 14.09402923 149.9606021 14.09374207 153.49408673 C14.09164019 178.53886546 14.08489873 203.58364102 14.07543945 228.62841797 C14.06625898 252.96305321 14.05917343 277.29768759 14.05493164 301.63232422 C14.05473435 302.75695374 14.05473435 302.75695374 14.05453308 303.90430305 C14.05321459 311.43345057 14.05193877 318.96259809 14.05069422 326.49174562 C14.04815782 341.83026169 14.04533657 357.16877771 14.04234314 372.5072937 C14.0421372 373.56521499 14.0421372 373.56521499 14.04192711 374.64450843 C14.03272236 421.76300697 14.01685593 468.88150364 14 516 C12.68 516.66 11.36 517.32 10 518 C9.50371094 517.61328125 9.00742188 517.2265625 8.49609375 516.828125 C7.47708984 516.04695312 7.47708984 516.04695312 6.4375 515.25 C5.77621094 514.73953125 5.11492187 514.2290625 4.43359375 513.703125 C1.99481449 511.99637098 -0.53001546 510.54014988 -3.12426758 509.08447266 C-6.35998708 507.21371045 -9.45612941 505.13871289 -12.5625 503.0625 C-13.19607422 502.64548828 -13.82964844 502.22847656 -14.48242188 501.79882812 C-18.54581345 499.09129532 -22.42758599 496.33788912 -26 493 C-26.375 489.6875 -26.375 489.6875 -26 487 C-26.8353125 486.62875 -26.8353125 486.62875 -27.6875 486.25 C-30.55390748 484.70059055 -32.67633787 483.31616133 -35 481 C-35.51093555 478.3047153 -35.68921919 476.22815541 -35.65434551 473.53192234 C-35.66430908 472.77312193 -35.67427266 472.01432153 -35.68453816 471.23252717 C-35.71193695 468.67483307 -35.70357672 466.11849471 -35.69548035 463.5606842 C-35.70768001 461.71444661 -35.72203242 459.86822218 -35.73835927 458.02201647 C-35.7768164 452.93676634 -35.78378231 447.85188032 -35.78555477 442.76650274 C-35.79274641 437.28629198 -35.82844717 431.8062549 -35.8601532 426.32614136 C-35.92380528 414.33623457 -35.94975599 402.34642213 -35.96801162 390.35637212 C-35.97955107 382.86988735 -35.99878414 375.38343494 -36.01952553 367.89697075 C-36.07568177 347.17067815 -36.12316392 326.44441121 -36.13602734 305.71804142 C-36.13645032 305.05492907 -36.1368733 304.39181672 -36.1373091 303.70861005 C-36.13902237 301.02131146 -36.14070607 298.33401284 -36.14239013 295.64671423 C-36.14366216 293.62409529 -36.14495019 291.60147635 -36.14624023 289.57885742 C-36.14665643 288.91050447 -36.14707263 288.24215151 -36.14750143 287.55354543 C-36.16138447 265.89349184 -36.23343313 244.23418504 -36.34082647 222.57440613 C-36.45419091 199.66836348 -36.51667646 176.76262014 -36.5205906 153.85626596 C-36.52392474 141.37217678 -36.54965164 128.8890336 -36.6330471 116.40519905 C-36.70380095 105.77218495 -36.72638927 95.14042741 -36.68658527 84.50722886 C-36.6677051 79.0830147 -36.67128178 73.66131221 -36.73616791 68.23739815 C-36.79508883 63.26578304 -36.78870834 58.29857467 -36.73152093 53.32697874 C-36.72217249 51.53410766 -36.73623012 49.74091996 -36.77675845 47.94848264 C-36.93735967 40.35865008 -37.04783506 33.91324399 -31.83890212 27.96543014 C-22.87055299 19 -22.87055299 19 -19 19 C-19 18.34 -19 17.68 -19 17 C-17.5390625 15.4921875 -17.5390625 15.4921875 -15.625 13.875 C-14.68527344 13.06675781 -14.68527344 13.06675781 -13.7265625 12.2421875 C-12 11 -12 11 -10 11 C-10 10.34 -10 9.68 -10 9 C-8.5390625 7.4921875 -8.5390625 7.4921875 -6.625 5.875 C-5.68527344 5.06675781 -5.68527344 5.06675781 -4.7265625 4.2421875 C-3 3 -3 3 -1 3 C-0.67 2.01 -0.34 1.02 0 0 Z " fill="#4C4C4C" transform="translate(74,148)"/>
<path d="M0 0 C3.90092059 0.52314574 5.89651157 1.39138206 8.70703125 4.1328125 C9.37669922 4.77476562 10.04636719 5.41671875 10.73632812 6.078125 C11.7640332 7.09132812 11.7640332 7.09132812 12.8125 8.125 C14.17187633 9.44144866 15.53255226 10.75655669 16.89453125 12.0703125 C17.57016113 12.72370605 18.24579102 13.37709961 18.94189453 14.05029297 C23.13903678 18.02637576 27.53026842 21.77393445 31.96875 25.4765625 C32.8040625 26.18554688 33.639375 26.89453125 34.5 27.625 C35.3559375 28.33914062 36.211875 29.05328125 37.09375 29.7890625 C39 32 39 32 39.28125 34.7734375 C39.14203125 35.87558594 39.14203125 35.87558594 39 37 C39.556875 37.226875 40.11375 37.45375 40.6875 37.6875 C43.78495648 39.44551584 45.71992915 41.24522527 48 44 C48.49694383 46.74859484 48.68304834 48.8808443 48.64317226 51.62350273 C48.65193745 52.38694294 48.66070264 53.15038314 48.66973343 53.9369579 C48.69306074 56.50439257 48.6807022 59.07041468 48.66856384 61.63790894 C48.67790257 63.49340731 48.68940537 65.34889584 48.70289046 67.20436871 C48.73353614 72.31037838 48.73280623 77.41597945 48.72691858 82.52206016 C48.72589993 88.02597125 48.75347884 93.52975009 48.77720642 99.03359985 C48.81877151 109.81906038 48.83248204 120.60438429 48.83526831 131.38991819 C48.83764245 140.15453849 48.84790779 148.91911362 48.86377144 157.68371964 C48.90064347 178.47784787 48.93139463 199.27194894 48.92877865 220.06611443 C48.92870075 220.73119493 48.92862286 221.39627544 48.92854261 222.0815099 C48.92812707 225.45246722 48.92763186 228.82342452 48.92711907 232.19438182 C48.92701934 232.86387459 48.92691962 233.53336736 48.92681687 234.22314779 C48.92661468 235.57702519 48.92640569 236.93090259 48.92618991 238.28477999 C48.92312569 259.3519724 48.96066583 280.41876254 49.02905273 301.48583984 C49.10584014 325.15054412 49.14882158 348.81504737 49.14423662 372.47990239 C49.1425749 385.01163762 49.15639108 397.54291917 49.21012688 410.07455063 C49.25557965 420.74305608 49.26658907 431.41090221 49.23257976 442.07946239 C49.21621581 447.52474251 49.21609953 452.96875667 49.25934601 458.41391754 C49.29851965 463.39743424 49.29168146 468.37867509 49.24792535 473.36213411 C49.24021562 475.16627951 49.24946379 476.97059215 49.27722573 478.77454041 C49.47121781 492.27223217 49.47121781 492.27223217 45.81285012 496.56854367 C43.27367582 498.37326101 40.82653787 499.706945 38 501 C36.82932193 501.76915558 35.67356614 502.56202498 34.54150391 503.38696289 C31.82158978 505.2378651 29.09400455 507.07576054 26.35693359 508.90112305 C25.18743141 509.68535224 24.02213991 510.47589216 22.86083984 511.2722168 C21.15922927 512.43778454 19.44496068 513.5820338 17.7265625 514.72265625 C16.72189941 515.40078369 15.71723633 516.07891113 14.68212891 516.77758789 C13.79702637 517.18098389 12.91192383 517.58437988 12 518 C10.68 517.34 9.36 516.68 8 516 C8 511.71 8 507.42 8 503 C6.35 503.99 4.7 504.98 3 506 C0.6875 505.1875 0.6875 505.1875 -1 504 C-1.01711078 456.16909871 -1.03303238 408.3381972 -1.04234314 360.5072937 C-1.0424812 359.79988157 -1.04261925 359.09246944 -1.04276149 358.36362057 C-1.04575409 342.99129075 -1.04852432 327.61896088 -1.05106533 312.24663097 C-1.05231271 304.70852872 -1.05360926 297.17042646 -1.05493164 289.63232422 C-1.0550624 288.8821747 -1.05519316 288.13202519 -1.05532788 287.35914387 C-1.0595926 263.02521386 -1.06710642 238.69128615 -1.07629722 214.35735754 C-1.08572136 189.36034104 -1.09188348 164.36332583 -1.09391499 139.36630758 C-1.09420316 135.83924569 -1.0945288 132.3121838 -1.09487724 128.78512192 C-1.09494467 128.09091522 -1.09501209 127.39670853 -1.09508156 126.68146527 C-1.09626531 115.4866675 -1.10090886 104.29187368 -1.10683203 93.09707753 C-1.1127071 81.85464021 -1.11488983 70.61220675 -1.11350138 59.36976756 C-1.11285793 53.27346306 -1.11387632 47.17717022 -1.11920547 41.08086777 C-1.12404132 35.50851675 -1.12433741 29.9361853 -1.12089889 24.36383341 C-1.12047339 22.33958471 -1.12176756 20.31533483 -1.12488318 18.29108848 C-1.1288507 15.5560397 -1.12676112 12.82106318 -1.12304783 10.0860157 C-1.12567484 9.28588832 -1.12830186 8.48576093 -1.13100848 7.66138726 C-1.1141458 2.2282916 -1.1141458 2.2282916 0 0 Z " fill="#4D4D4D" transform="translate(1154,148)"/>
<path d="M0 0 C3.3 0 6.6 0 10 0 C10 17.49 10 34.98 10 53 C-302.18 53 -614.36 53 -936 53 C-936 48.71 -936 44.42 -936 40 C-627.12 40 -318.24 40 0 40 C0 26.8 0 13.6 0 0 Z " fill="#020202" transform="translate(1088,132)"/>
<path d="M0 0 C3.3 0 6.6 0 10 0 C10 17.49 10 34.98 10 53 C-301.85 53 -613.7 53 -935 53 C-935 48.71 -935 44.42 -935 40 C-626.45 40 -317.9 40 0 40 C0 26.8 0 13.6 0 0 Z " fill="#010101" transform="translate(1088,639)"/>
<path d="M0 0 C153.45 0 306.9 0 465 0 C465 3.96 465 7.92 465 12 C467.97 12 470.94 12 474 12 C474 16.95 474 21.9 474 27 C320.55 27 167.1 27 9 27 C9 23.04 9 19.08 9 15 C6.03 15 3.06 15 0 15 C0 10.05 0 5.1 0 0 Z " fill="#5C5C5C" transform="translate(624,598)"/>
<path d="M0 0 C3.3 0 6.6 0 10 0 C10 79.53 10 159.06 10 241 C4.08272491 241.65747501 -1.47018106 242.14450145 -7.36950779 242.12304783 C-8.16498615 242.12420167 -8.96046451 242.12535552 -9.78004828 242.12654433 C-12.43188332 242.12918037 -15.08365701 242.12471382 -17.73548889 242.12025452 C-19.6612887 242.12069083 -21.58708846 242.12156686 -23.5128879 242.12284368 C-28.79429318 242.12507673 -34.07567813 242.12108363 -39.35708082 242.11606562 C-45.05636238 242.11174423 -50.7556428 242.11320875 -56.45492554 242.1139679 C-66.32584466 242.11449206 -76.19675717 242.11135648 -86.06767464 242.10573006 C-100.33933782 242.09760051 -114.61099781 242.09499834 -128.88266306 242.09374207 C-152.03790683 242.09155384 -175.19314685 242.08490855 -198.34838867 242.07543945 C-220.84057599 242.06625213 -243.33276236 242.05916993 -265.82495117 242.05493164 C-266.51850344 242.05480011 -267.2120557 242.05466859 -267.9266247 242.05453308 C-274.89168908 242.05321453 -281.85675346 242.05193872 -288.82181786 242.05069422 C-347.21454758 242.0402567 -405.60727375 242.02261368 -464 242 C-464 239.36 -464 236.72 -464 234 C-461.03 234 -458.06 234 -455 234 C-455 232.35 -455 230.7 -455 229 C-304.85 229 -154.7 229 0 229 C0 153.43 0 77.86 0 0 Z " fill="#000000" transform="translate(1088,342)"/>
<path d="M0 0 C3.3 0 6.6 0 10 0 C10.02312504 9.37035938 10.04091591 18.74070901 10.05181217 28.11109066 C10.05704065 32.46168459 10.06413765 36.81225907 10.07543945 41.1628418 C10.08626959 45.35790258 10.0922771 49.55294459 10.09487724 53.74801826 C10.09673126 55.35206968 10.10035144 56.95612003 10.10573006 58.5601635 C10.11294219 60.79916515 10.11399087 63.0380883 10.11352539 65.27709961 C10.115746 66.55395126 10.11796661 67.83080292 10.12025452 69.14634705 C10 72 10 72 9 73 C7.30583697 73.09726802 5.60758117 73.12371513 3.91062832 73.12304783 C2.80091748 73.12503888 1.69120664 73.12702993 0.54786819 73.12908131 C-0.68654052 73.12616847 -1.92094924 73.12325563 -3.19276428 73.12025452 C-4.49218836 73.12110894 -5.79161243 73.12196337 -7.130413 73.12284368 C-10.75386512 73.1250911 -14.37728797 73.12106402 -18.00073636 73.11606562 C-21.90191407 73.11176482 -25.80309 73.11320728 -29.70426941 73.1139679 C-36.46886146 73.11449337 -43.23344389 73.11134416 -49.99803352 73.10573006 C-59.77860866 73.09761818 -69.55917912 73.09500016 -79.33975726 73.09374207 C-95.20640656 73.09155105 -111.07305074 73.08488964 -126.93969727 73.07543945 C-142.3566892 73.06626661 -157.77367973 73.05919661 -173.19067383 73.05493164 C-174.14997179 73.05466364 -175.10926976 73.05439565 -176.09763736 73.05411953 C-183.59948649 73.05204022 -191.10133565 73.05008326 -198.60318482 73.04816496 C-235.40212792 73.03872377 -272.20105819 73.01860725 -309 73 C-309 137.02 -309 201.04 -309 267 C-312.3 267 -315.6 267 -319 267 C-319 198.69 -319 130.38 -319 60 C-213.73 60 -108.46 60 0 60 C0 40.2 0 20.4 0 0 Z " fill="#000000" transform="translate(1088,199)"/>
<path d="M0 0 C2.97 0 5.94 0 9 0 C10 1 10 1 10.1241985 3.58641773 C10.12362892 5.33559944 10.12362892 5.33559944 10.12304783 7.12011814 C10.12420167 7.76960748 10.12535552 8.41909682 10.12654433 9.08826765 C10.12921731 11.29166324 10.12468329 13.49498755 10.12025452 15.69837952 C10.12069008 17.28316609 10.12156471 18.86795259 10.12284368 20.4527387 C10.12509157 24.8286928 10.12106336 29.20462267 10.11606562 33.58057368 C10.1117655 38.2915749 10.11320723 43.00257464 10.1139679 47.71357727 C10.11449341 55.88270964 10.11134375 64.05183406 10.10573006 72.22096443 C10.09761876 84.0322994 10.09500022 95.8436305 10.09374207 107.65496796 C10.09155096 126.81596064 10.08488929 145.97694908 10.07543945 165.13793945 C10.06626684 183.7561033 10.05918527 202.37426599 10.05493164 220.99243164 C10.05466892 222.13917522 10.05440619 223.2859188 10.05413551 224.46741218 C10.05283051 230.2200249 10.0515668 235.97263763 10.05032361 241.72525036 C10.03994917 289.48350318 10.02232927 337.24175138 10 385 C4.41855937 385.61348864 -1.08562618 386.12514293 -6.70730591 386.12025452 C-7.94110489 386.12162918 -9.17490387 386.12300385 -10.4460907 386.12442017 C-12.42594719 386.11902725 -12.42594719 386.11902725 -14.44580078 386.11352539 C-15.87582904 386.11324276 -17.30585744 386.11340273 -18.73588562 386.1139679 C-22.58848931 386.11425291 -26.44106139 386.10840429 -30.29365778 386.10139394 C-34.33085116 386.09511087 -38.3680454 386.0945527 -42.40524292 386.09336853 C-50.03705778 386.09026975 -57.66885818 386.08207608 -65.30066669 386.07201904 C-73.99480615 386.06081261 -82.68894632 386.05533607 -91.38309121 386.05032361 C-109.25540231 386.03989215 -127.12769999 386.02232104 -145 386 C-146.5625 383.1875 -146.5625 383.1875 -148 380 C-147.67 379.01 -147.34 378.02 -147 377 C-147.33 375.68 -147.66 374.36 -148 373 C-99.16 373 -50.32 373 0 373 C0 249.91 0 126.82 0 0 Z " fill="#000000" transform="translate(608,198)"/>
<path d="M0 0 C3.82362631 1.61768805 7.39018099 3.73630619 10 7 C10.61220542 10.07259364 10.82645171 12.36616672 10.78297997 15.43725681 C10.79469657 16.28868284 10.80641318 17.14010887 10.81848484 18.01733568 C10.85053091 20.88421305 10.83971977 23.74933376 10.82919312 26.61634827 C10.84326158 28.68690441 10.85991486 30.75744435 10.87893736 32.82796091 C10.92351064 38.52859709 10.93034276 44.22875562 10.93093848 49.92954338 C10.93792859 56.07368384 10.97914586 62.2176101 11.01559448 68.3616333 C11.08471669 81.10223318 11.11440275 93.8426365 11.13231313 106.58338052 C11.13328847 107.27596599 11.1342638 107.96855147 11.13526869 108.68212438 C11.13623889 109.37610286 11.13720908 110.07008134 11.13820868 110.78508948 C11.14951385 118.47496914 11.17077809 126.1648167 11.19227982 133.85467339 C11.25607697 157.08245562 11.309441 180.31020637 11.32178307 203.53807926 C11.32219047 204.28112527 11.32259787 205.02417128 11.32301762 205.78973383 C11.32466444 208.80097564 11.32627224 211.81221747 11.32787561 214.8234593 C11.32908593 217.08990712 11.33031352 219.35635493 11.33154297 221.62280273 C11.33213521 222.74618624 11.33213521 222.74618624 11.33273941 223.89226435 C11.345995 248.17178194 11.42647426 272.45041493 11.54795399 296.72961698 C11.67617602 322.40337191 11.74646395 348.07662725 11.74943793 373.75071329 C11.74997447 376.57001436 11.75073877 379.38931529 11.75166702 382.20861626 C11.75196667 383.24989093 11.75196667 383.24989093 11.75227237 384.31220145 C11.75681054 395.47630118 11.81364017 406.639546 11.88907977 417.8033655 C11.96356434 429.02884447 11.97702863 440.25320855 11.93310122 451.47895444 C11.91093334 457.55938834 11.91457481 463.63689866 11.98803711 469.71699333 C12.05470319 475.28707355 12.04712531 480.85200381 11.981106 486.42204624 C11.97020032 488.43357963 11.98619673 490.445482 12.0322036 492.45651878 C12.34517485 507.07624256 12.34517485 507.07624256 8.42276981 511.96635167 C4.630052 515.55141866 0.41679245 518.29602795 -4.09818964 520.88337176 C-6.66794671 522.39217798 -9.00366978 524.16018351 -11.359375 525.98046875 C-12.82197996 527.0507604 -14.28547368 528.11983894 -15.75 529.1875 C-16.5028125 529.74501953 -17.255625 530.30253906 -18.03125 530.87695312 C-19.12179687 531.67069336 -19.12179687 531.67069336 -20.234375 532.48046875 C-20.86569336 532.94348389 -21.49701172 533.40649902 -22.14746094 533.88354492 C-24.09551667 535.05756428 -25.77770276 535.56863821 -28 536 C-30.02129504 529.93611488 -30.49263647 522.99873193 -28 517 C-24.58399989 512.8201339 -20.13171797 509.91467497 -15.66015625 506.96484375 C-14.59953045 506.26173532 -14.59953045 506.26173532 -13.51747787 505.54442269 C-11 504 -11 504 -8.40101826 502.87213796 C-5.18682564 501.24266475 -3.27494633 499.81975792 -1 497 C0.97381322 490.74492002 0.32877344 483.76377923 0.24050903 477.29017639 C0.24900075 475.23408719 0.2618814 473.17801222 0.2787751 471.12197489 C0.31249406 465.47058942 0.28387838 459.8209654 0.2451992 454.16967475 C0.21437312 448.07628079 0.24118609 441.98311094 0.2610321 435.88970947 C0.28751329 425.33213273 0.27774796 414.77502814 0.24249649 404.21751595 C0.20567869 393.14540203 0.18952821 382.07357531 0.20095444 371.0014019 C0.20200286 369.96860214 0.20200286 369.96860214 0.20307247 368.91493774 C0.20672958 365.41819776 0.21075568 361.92145831 0.21492384 358.42471891 C0.24378013 333.65993092 0.22633628 308.89537054 0.18164062 284.13061523 C0.13832659 260.07264268 0.11599918 236.01480013 0.12207031 211.95678711 C0.12224911 211.215162 0.1224279 210.4735369 0.12261211 209.70943831 C0.12443081 202.26170575 0.12667603 194.81397337 0.12923372 187.36624104 C0.13443429 172.19447327 0.1367882 157.02270551 0.13742065 141.85093689 C0.13746954 140.80458644 0.13746954 140.80458644 0.13751941 139.7370976 C0.13936922 93.15802502 0.07465374 46.5790062 0 0 Z " fill="#000000" transform="translate(1137,157)"/>
<path d="M0 0 C3.3 0 6.6 0 10 0 C10 4.95 10 9.9 10 15 C-143.45 15 -296.9 15 -455 15 C-455 11.04 -455 7.08 -455 3 C-304.85 3 -154.7 3 0 3 C0 2.01 0 1.02 0 0 Z " fill="#000000" transform="translate(1088,610)"/>
<path d="M0 0 C0 185.46 0 370.92 0 562 C-0.99 562.33 -1.98 562.66 -3 563 C-4.72314453 562.12646484 -4.72314453 562.12646484 -6.6328125 560.7109375 C-7.34896729 560.18725586 -8.06512207 559.66357422 -8.80297852 559.12402344 C-9.95237915 558.25825684 -9.95237915 558.25825684 -11.125 557.375 C-11.91382568 556.79266602 -12.70265137 556.21033203 -13.51538086 555.61035156 C-16.02054804 553.75356595 -18.51207201 551.87981068 -21 550 C-21.82226074 549.37963867 -22.64452148 548.75927734 -23.49169922 548.12011719 C-37.39186833 537.60813167 -37.39186833 537.60813167 -39 536 C-39.04063832 534.33382885 -39.042721 532.66611905 -39 531 C-35.53245639 531.62224099 -33.37056834 532.96346308 -30.55859375 535.0546875 C-29.31239258 535.97701172 -29.31239258 535.97701172 -28.04101562 536.91796875 C-27.18185547 537.56378906 -26.32269531 538.20960938 -25.4375 538.875 C-24.14295898 539.83212891 -24.14295898 539.83212891 -22.82226562 540.80859375 C-16.38273113 545.60196908 -16.38273113 545.60196908 -14.41821289 547.64501953 C-12.92905654 549.26070814 -12.92905654 549.26070814 -10 550 C-10.00227832 548.85368652 -10.00455664 547.70737304 -10.00690401 546.52632278 C-10.1069018 496.0150976 -10.19947067 445.50386551 -10.25405884 394.99256897 C-10.25488718 394.22804788 -10.25571552 393.4635268 -10.25656897 392.67583841 C-10.27452573 376.06138838 -10.29114692 359.44693727 -10.30639198 342.83248454 C-10.3138761 334.68495365 -10.32165541 326.53742305 -10.32958984 318.38989258 C-10.33076668 317.17371617 -10.33076668 317.17371617 -10.33196728 315.93297055 C-10.35754283 289.64537511 -10.40261621 263.35785696 -10.45778332 237.07030836 C-10.51436414 210.06011154 -10.55130923 183.0499575 -10.56348994 156.03970242 C-10.56521891 152.22612497 -10.56717273 148.41254768 -10.56926346 144.59897041 C-10.569668 143.84839166 -10.57007253 143.09781291 -10.57048933 142.32448935 C-10.57758416 130.23425973 -10.60542458 118.14416229 -10.6409922 106.05398661 C-10.67629397 93.90406816 -10.68981337 81.75428096 -10.68100826 69.60431301 C-10.67684187 63.01917962 -10.68317692 56.43435906 -10.71523285 49.84928703 C-10.74434872 43.82435336 -10.74595915 37.80007082 -10.72539337 31.77510769 C-10.72285018 29.5919428 -10.73053158 27.40873791 -10.74929909 25.22565221 C-10.77328985 22.26348859 -10.76045995 19.30369239 -10.73828697 16.34156704 C-10.75404905 15.48879656 -10.76981114 14.63602608 -10.78605086 13.75741407 C-10.69263064 8.25577269 -9.33521336 5.30805482 -5.6771696 1.20283553 C-4 0 -4 0 0 0 Z " fill="#000000" transform="translate(142,130)"/>
<path d="M0 0 C1.32 0 2.64 0 4 0 C5.58779923 3.17559846 5.1344964 6.59904539 5.12304783 10.0860157 C5.12420167 10.93588698 5.12535552 11.78575826 5.12654433 12.66138321 C5.12921423 15.54039809 5.12468576 18.41935826 5.12025452 21.29837036 C5.12069014 23.37074639 5.12156489 25.44312236 5.12284368 27.51549804 C5.12509035 33.23457637 5.12106502 38.95363613 5.11606562 44.67271209 C5.11176376 50.83088034 5.11320736 56.98904747 5.1139679 63.1472168 C5.1144933 73.82475188 5.11137955 84.50228026 5.10573006 95.17981339 C5.09981835 106.38158319 5.09596519 117.58335057 5.09487724 128.78512192 C5.0948085 129.48093052 5.09473976 130.17673913 5.09466894 130.89363284 C5.09433062 134.42711747 5.09402923 137.9606021 5.09374207 141.49408673 C5.09164019 166.53886546 5.08489873 191.58364102 5.07543945 216.62841797 C5.06625898 240.96305321 5.05917343 265.29768759 5.05493164 289.63232422 C5.05473435 290.75695374 5.05473435 290.75695374 5.05453308 291.90430305 C5.05321459 299.43345057 5.05193877 306.96259809 5.05069422 314.49174562 C5.04815782 329.83026169 5.04533657 345.16877771 5.04234314 360.5072937 C5.0421372 361.56521499 5.0421372 361.56521499 5.04192711 362.64450843 C5.03272236 409.76300697 5.01685593 456.88150364 5 504 C3.68 504.66 2.36 505.32 1 506 C0.50371094 505.61328125 0.00742188 505.2265625 -0.50390625 504.828125 C-1.18324219 504.30734375 -1.86257812 503.7865625 -2.5625 503.25 C-3.22378906 502.73953125 -3.88507813 502.2290625 -4.56640625 501.703125 C-7.00518551 499.99637098 -9.53001546 498.54014988 -12.12426758 497.08447266 C-15.35998708 495.21371045 -18.45612941 493.13871289 -21.5625 491.0625 C-22.19607422 490.64548828 -22.82964844 490.22847656 -23.48242188 489.79882812 C-27.54572289 487.09135566 -31.40632457 484.31386254 -35 481 C-35.375 478.1875 -35.375 478.1875 -35 476 C-34.01 475.67 -33.02 475.34 -32 475 C-32 475.66 -32 476.32 -32 477 C-30.9790625 477.3403125 -30.9790625 477.3403125 -29.9375 477.6875 C-26.87721578 479.05486103 -24.51013239 480.71934638 -21.83203125 482.703125 C-20.04188198 483.9703522 -18.22780945 485.05866069 -16.3125 486.125 C-13.67446693 487.61822626 -11.41046797 489.19214902 -9 491 C-8.01 491.33 -7.02 491.66 -6 492 C-6.00113916 490.9752736 -6.00227832 489.95054719 -6.003452 488.89476848 C-6.0534436 443.74790724 -6.09972904 398.60104372 -6.12702942 353.4541626 C-6.12744359 352.77099212 -6.12785776 352.08782164 -6.12828448 351.38394902 C-6.13726256 336.53791978 -6.1455732 321.69189023 -6.15319599 306.84586023 C-6.1569381 299.56569712 -6.16082775 292.28553409 -6.16479492 285.00537109 C-6.1651872 284.28089542 -6.16557948 283.55641975 -6.16598364 282.80999028 C-6.17877474 259.31456025 -6.20131393 235.81915183 -6.22889166 212.32373491 C-6.25717269 188.18537514 -6.27565244 164.04702733 -6.28174497 139.90865127 C-6.28260947 136.50169491 -6.28358639 133.0947386 -6.28463173 129.68778229 C-6.284834 129.017224 -6.28503627 128.34666571 -6.28524467 127.65578747 C-6.28879409 116.8481798 -6.30271975 106.04060904 -6.3204961 95.23301644 C-6.33813357 84.37588828 -6.34466663 73.51879858 -6.34050413 62.66165677 C-6.33857549 56.77569416 -6.34160963 50.88984019 -6.35761642 45.00389671 C-6.37214794 39.62136595 -6.3729965 34.23901751 -6.36269668 28.8564786 C-6.36142252 26.90352303 -6.36528503 24.95055636 -6.37464955 22.99762282 C-6.3865958 20.35372738 -6.38025721 17.71050007 -6.36914349 15.06661606 C-6.37702453 14.29901657 -6.38490557 13.53141709 -6.39302543 12.74055701 C-6.36230158 9.53141874 -6.1812075 7.32457082 -4.60192853 4.4958365 C-3 3 -3 3 -1 3 C-0.67 2.01 -0.34 1.02 0 0 Z " fill="#000000" transform="translate(83,160)"/>
<path d="M0 0 C4.66355961 0.87798908 7.30027753 3.15204692 10 7 C10.59879746 9.86663162 10.81850331 11.89328278 10.76622009 14.74655056 C10.77613912 15.51114461 10.78605815 16.27573866 10.79627776 17.06350222 C10.82221387 19.6290648 10.80541833 22.19254933 10.78881836 24.75816345 C10.79859531 26.61452814 10.81097453 28.47088064 10.82573414 30.32721239 C10.85859173 35.43103277 10.85388593 40.5342365 10.8429842 45.63812578 C10.83765095 51.14135059 10.86669333 56.64440967 10.89117432 62.14756775 C10.93331702 72.92957544 10.94236214 83.71136812 10.93879855 94.49344843 C10.93618518 103.25519119 10.94378195 112.01686676 10.95864868 120.77859688 C10.96284698 123.30062073 10.96704218 125.82264459 10.97123432 128.34466845 C10.97332138 129.59987166 10.97540843 130.85507487 10.97755873 132.14831454 C11.00463108 149.14829277 11.0198091 166.14824725 11.01091003 183.14824581 C11.01056612 183.8130603 11.01022222 184.4778748 11.00986788 185.16283518 C11.0080901 188.53240171 11.00620047 191.90196817 11.00427186 195.27153461 C11.0038898 195.94074504 11.00350773 196.60995547 11.00311409 197.29944501 C11.0023399 198.65275075 11.00155925 200.00605648 11.00077213 201.35936221 C10.98883027 222.42001148 11.01971607 243.48022131 11.08398438 264.54077148 C11.15612375 288.20073146 11.1947183 311.86047723 11.18490696 335.52057272 C11.18041314 348.04892797 11.19096802 360.57684756 11.24069214 373.10511589 C11.28265937 383.7699515 11.28996184 394.43411256 11.25209296 405.09897559 C11.23374021 410.54222757 11.23160242 415.9842209 11.27280426 421.42737579 C11.3100963 426.409019 11.30137044 431.38836739 11.25571263 436.36992139 C11.24730775 438.17335718 11.25585295 439.97696671 11.28290451 441.78021919 C11.47154963 455.27244388 11.47154963 455.27244388 7.81243896 459.56813252 C5.27341577 461.37272715 2.82621944 462.70669799 0 464 C-1.17066548 464.76917474 -2.32641856 465.56204599 -3.45849609 466.38696289 C-6.17841022 468.2378651 -8.90599545 470.07576054 -11.64306641 471.90112305 C-12.81256859 472.68535224 -13.97786009 473.47589216 -15.13916016 474.2722168 C-16.84077073 475.43778454 -18.55503932 476.5820338 -20.2734375 477.72265625 C-21.27810059 478.40078369 -22.28276367 479.07891113 -23.31787109 479.77758789 C-26 481 -26 481 -28.35791016 480.20483398 C-29.17074463 479.60844116 -29.17074463 479.60844116 -30 479 C-29.99396701 476.4329611 -29.94644628 473.87786812 -29.875 471.3125 C-29.87757812 470.59126953 -29.88015625 469.87003906 -29.8828125 469.12695312 C-29.72488652 464.80372946 -29.4121506 463.42394318 -26.26953125 460.19140625 C-25.19058594 459.46824219 -24.11164063 458.74507812 -23 458 C-22.14019531 457.41476562 -21.28039063 456.82953125 -20.39453125 456.2265625 C-19.54246094 455.69804688 -18.69039062 455.16953125 -17.8125 454.625 C-16.97332031 454.10164063 -16.13414063 453.57828125 -15.26953125 453.0390625 C-12 451 -12 451 -9.32229918 449.89180893 C-5.91669337 448.25575776 -3.60263928 446.75747358 -1 444 C0.68424349 438.13172197 0.464086 432.3664043 0.36076355 426.30226135 C0.36969294 424.46477983 0.38345079 422.6273165 0.40161878 420.7899031 C0.43755391 415.74256926 0.4049759 410.69764025 0.36126482 405.65045321 C0.32610643 400.2073558 0.35439832 394.76454664 0.375 389.32142639 C0.4019991 379.8916503 0.3887617 370.46261812 0.34822655 361.03289986 C0.28967822 347.39924604 0.29176317 333.76613249 0.30866591 320.13238811 C0.33444141 298.01301411 0.31124768 275.89397013 0.25708008 253.7746582 C0.20457676 232.28731888 0.17517048 210.80015056 0.17700195 189.31274414 C0.17704922 188.650304 0.17709649 187.98786386 0.17714519 187.30534977 C0.177695 179.99268332 0.17887669 172.68001703 0.18031728 165.3673507 C0.19058904 110.24475174 0.12126484 55.12245565 0 0 Z " fill="#000000" transform="translate(1192,185)"/>
<path d="M0 0 C0.91644287 0.00523682 1.83288574 0.01047363 2.77709961 0.01586914 C3.76645508 0.0190918 4.75581055 0.02231445 5.77514648 0.02563477 C6.81606445 0.03401367 7.85698242 0.04239258 8.92944336 0.05102539 C10.49662109 0.05779297 10.49662109 0.05779297 12.09545898 0.06469727 C14.68600996 0.07652627 17.27644895 0.0930085 19.86694336 0.11352539 C20.71079011 1.52395495 21.54163832 2.94216672 22.36694336 4.36352539 C22.83100586 5.15243164 23.29506836 5.94133789 23.77319336 6.75415039 C24.86694336 9.11352539 24.86694336 9.11352539 24.86694336 13.11352539 C23.75939697 12.97543457 22.65185059 12.83734375 21.51074219 12.69506836 C16.784052 12.36464614 12.31184342 12.29532633 7.86694336 14.11352539 C2.67930757 18.76613918 0.26471318 25.984818 -2.44555664 32.23852539 C-3.29136635 34.05177652 -4.14404072 35.86184078 -5.00341797 37.66870117 C-6.68342598 41.21835197 -8.33126723 44.77986808 -9.95043945 48.35766602 C-12.52532092 54.01901322 -15.37555281 59.51214187 -18.32055664 64.98852539 C-19.24749182 66.75286225 -20.1719189 68.51851878 -21.09399414 70.28540039 C-21.570625 71.19741211 -22.04725586 72.10942383 -22.53833008 73.04907227 C-25.86145479 79.43484406 -29.15139878 85.83777738 -32.44555664 92.23852539 C-33.17080185 93.64738739 -33.89606224 95.05624157 -34.62133789 96.46508789 C-35.70975046 98.57937954 -36.79816014 100.69367267 -37.88653564 102.8079834 C-41.3745105 109.58344553 -44.86401699 116.35810983 -48.36068726 123.12908936 C-49.28677139 124.92307741 -50.21152619 126.71775149 -51.13623047 128.51245117 C-61.40213996 148.38260871 -61.40213996 148.38260871 -63.13305664 150.11352539 C-73.09810135 151.20546924 -83.13366911 151.25470118 -93.14648438 151.22705078 C-94.57725014 151.22676772 -96.00801605 151.22692895 -97.43878174 151.22749329 C-101.27042906 151.22777664 -105.10204418 151.22195557 -108.93368411 151.21491933 C-112.95750175 151.20860796 -116.98132038 151.2080759 -121.00514221 151.20689392 C-128.60137467 151.20380332 -136.19759248 151.19562097 -143.79381853 151.18554443 C-152.4517989 151.17431222 -161.10978002 151.16885504 -169.76776588 151.163849 C-187.55620439 151.15343611 -205.34462933 151.13588128 -223.13305664 151.11352539 C-223.13305664 148.47352539 -223.13305664 145.83352539 -223.13305664 143.11352539 C-220.16305664 143.11352539 -217.19305664 143.11352539 -214.13305664 143.11352539 C-214.13305664 141.46352539 -214.13305664 139.81352539 -214.13305664 138.11352539 C-167.60305664 137.78352539 -121.07305664 137.45352539 -73.13305664 137.11352539 C-65.54305664 122.26352539 -57.95305664 107.41352539 -50.13305664 92.11352539 C-43.94555664 80.23852539 -43.94555664 80.23852539 -41.26586914 75.12915039 C-36.89997033 66.77519932 -32.61753586 58.37805589 -28.32055664 49.98852539 C-16.01967382 25.97857068 -16.01967382 25.97857068 -10.42861938 15.14434814 C-9.77686933 13.88082749 -9.12579943 12.61695575 -8.47543335 11.35272217 C-7.58841086 9.62881137 -6.69870465 7.90628223 -5.80883789 6.18383789 C-5.06500854 4.74161865 -5.06500854 4.74161865 -4.30615234 3.27026367 C-2.60273184 0.13852241 -2.60273184 0.13852241 0 0 Z " fill="#010101" transform="translate(367.133056640625,432.886474609375)"/>
<path d="M0 0 C153.45 0 306.9 0 465 0 C465 2.64 465 5.28 465 8 C311.55 8 158.1 8 0 8 C0 5.36 0 2.72 0 0 Z " fill="#000000" transform="translate(633,588)"/>
<path d="M0 0 C153.12 0 306.24 0 464 0 C464.33 2.64 464.66 5.28 465 8 C311.55 8 158.1 8 0 8 C0 5.36 0 2.72 0 0 Z " fill="#5D5D5D" transform="translate(624,576)"/>
<path d="M0 0 C45.54 0 91.08 0 138 0 C138 3.96 138 7.92 138 12 C140.97 12 143.94 12 147 12 C147 16.95 147 21.9 147 27 C103.77 27 60.54 27 16 27 C14.02 23.37 12.04 19.74 10 16 C9.01 15.67 8.02 15.34 7 15 C5.64391082 12.86568405 4.46036423 10.80311181 3.3125 8.5625 C2.99216797 7.96373047 2.67183594 7.36496094 2.34179688 6.74804688 C0 2.28914579 0 2.28914579 0 0 Z " fill="#5C5C5C" transform="translate(471,598)"/>
<path d="M0 0 C45.21 0 90.42 0 137 0 C135 5 135 5 132 11 C138.93 11.495 138.93 11.495 146 12 C143.95079681 17.12300798 141.4675674 22.06486519 139 27 C96.1 27 53.2 27 9 27 C9 23.04 9 19.08 9 15 C6.03 15 3.06 15 0 15 C0 10.05 0 5.1 0 0 Z " fill="#5C5C5C" transform="translate(144,598)"/>
<path d="M0 0 C1.23556641 0.01740234 1.23556641 0.01740234 2.49609375 0.03515625 C3.32238281 0.04417969 4.14867187 0.05320313 5 0.0625 C5.63808594 0.07410156 6.27617187 0.08570313 6.93359375 0.09765625 C7.09717098 23.68922112 7.22058224 47.28070091 7.29627895 70.87271881 C7.33236174 81.82712266 7.38154887 92.78117399 7.46166992 103.73535156 C7.53147648 113.28388694 7.57660997 122.83216699 7.59221321 132.38095045 C7.60133311 137.43634113 7.62274063 142.49100143 7.67370415 147.54615784 C7.72131004 152.3069539 7.73585612 157.06672061 7.72534752 161.82773209 C7.7272692 163.57244084 7.74113975 165.31718492 7.76803207 167.06168747 C7.98516438 181.87699104 7.98516438 181.87699104 3.57142639 187.0736084 C1.45636501 189.02382155 -0.66106281 190.49409396 -3.06640625 192.09765625 C-3.08973228 167.21162174 -3.10738396 142.32558886 -3.11821842 117.43954563 C-3.12338201 105.88539325 -3.1304259 94.33124764 -3.1418457 82.77709961 C-3.15179062 72.71041276 -3.15825922 62.64373081 -3.16049474 52.57703918 C-3.16180218 47.24328914 -3.16489009 41.90955313 -3.17213631 36.57580757 C-3.1788935 31.56167966 -3.18102383 26.54757166 -3.17951393 21.53343964 C-3.1797904 19.68748046 -3.18179729 17.84152067 -3.18561172 15.99556541 C-3.19054428 13.48668845 -3.18940617 10.97788792 -3.18666077 8.4690094 C-3.18957361 7.72875112 -3.19248645 6.98849283 -3.19548756 6.22580248 C-3.17735996 0.15015879 -3.17735996 0.15015879 0 0 Z " fill="#010101" transform="translate(280.06640625,197.90234375)"/>
<path d="M0 0 C5.28 0 10.56 0 16 0 C13.95079681 5.12300798 11.4675674 10.06486519 9 15 C-33.9 15 -76.8 15 -121 15 C-121 11.04 -121 7.08 -121 3 C-81.4 3 -41.8 3 -1 3 C-0.67 2.01 -0.34 1.02 0 0 Z " fill="#000000" transform="translate(274,610)"/>
<path d="M0 0 C3.3 0 6.6 0 10 0 C10 4.95 10 9.9 10 15 C-33.23 15 -76.46 15 -121 15 C-122.98 11.04 -124.96 7.08 -127 3 C-85.09 3 -43.18 3 0 3 C0 2.01 0 1.02 0 0 Z " fill="#000000" transform="translate(608,610)"/>
<path d="M0 0 C49.17 0 98.34 0 149 0 C149 2.31 149 4.62 149 7 C148 8 148 8 145.61243343 8.12304783 C144.00989633 8.12166514 144.00989633 8.12166514 142.37498474 8.12025452 C140.54284424 8.12231651 140.54284424 8.12231651 138.6736908 8.12442017 C137.30776953 8.12088056 135.94184852 8.11724574 134.57592773 8.11352539 C133.14722699 8.11324352 131.7185261 8.11340124 130.28982544 8.1139679 C126.39950028 8.11425589 122.50920569 8.10835887 118.61888766 8.10139394 C114.55761795 8.0951607 110.49634761 8.09455663 106.43507385 8.09336853 C98.73921067 8.09025512 91.04336162 8.08204161 83.34750468 8.07201904 C74.58827886 8.06085819 65.82905239 8.05534753 57.06982124 8.05032361 C39.04653947 8.03985901 21.02327087 8.02225939 3 8 C0 2.25 0 2.25 0 0 Z " fill="#000000" transform="translate(469,588)"/>
<path d="M0 0 C48.84 0 97.68 0 148 0 C146 6 146 6 145 8 C97.15 8 49.3 8 0 8 C0 5.36 0 2.72 0 0 Z " fill="#000000" transform="translate(153,588)"/>
<path d="M0 0 C48.84 0 97.68 0 148 0 C148 2.64 148 5.28 148 8 C100.15 8 52.3 8 3 8 C0 2 0 2 0 0 Z " fill="#5D5D5D" transform="translate(460,576)"/>
<path d="M0 0 C48.51 0 97.02 0 147 0 C146.34 2.64 145.68 5.28 145 8 C97.15 8 49.3 8 0 8 C0 5.36 0 2.72 0 0 Z " fill="#5D5D5D" transform="translate(144,576)"/>
<path d="M0 0 C15.84 0 31.68 0 48 0 C48 4.29 48 8.58 48 13 C42.46411467 13.02464775 36.928261 13.04283496 31.39233398 13.05493164 C29.5075627 13.05997244 27.62279535 13.06680498 25.73803711 13.07543945 C23.03498364 13.08751617 20.33198169 13.09323068 17.62890625 13.09765625 C16.35703209 13.10539818 16.35703209 13.10539818 15.0594635 13.11329651 C13.03928932 13.11349195 11.01922066 13.06206211 9 13 C8 12 8 12 7.90234375 9.49609375 C7.91394531 8.48675781 7.92554688 7.47742188 7.9375 6.4375 C7.94652344 5.42558594 7.95554687 4.41367187 7.96484375 3.37109375 C7.97644531 2.58863281 7.98804688 1.80617188 8 1 C5.36 1 2.72 1 0 1 C0 0.67 0 0.34 0 0 Z " fill="#000000" transform="translate(907,399)"/>
</svg>
